<?xml version="1.0" encoding="UTF-8"?>
<svg version="1.1" xmlns="http://www.w3.org/2000/svg" width="2481" height="2481">
<path d="M0 0 C44.62968209 -0.06621715 89.25931761 -0.12157853 133.88903482 -0.15319599 C139.1657694 -0.15694782 144.44250386 -0.16083081 149.71923828 -0.16479492 C150.76967909 -0.16558185 151.82011989 -0.16636878 152.90239224 -0.16717956 C169.87969547 -0.18021033 186.85696803 -0.20385126 203.8342531 -0.23145839 C221.27269913 -0.25957754 238.71112916 -0.27618999 256.14959693 -0.28226548 C266.89788953 -0.28636846 277.6460954 -0.29929663 288.39436129 -0.3237494 C295.77888661 -0.33968708 303.16336751 -0.34438231 310.54790875 -0.34050413 C314.79945524 -0.338595 319.05085086 -0.34138552 323.30237007 -0.35761642 C340.07430532 -0.41850204 356.48747932 -0.3676121 373 3 C374.57657568 3.31346736 374.57657568 3.31346736 376.18500137 3.6332674 C378.47836972 4.11013564 380.73516992 4.65326137 383 5.25 C384.22795288 5.57013062 384.22795288 5.57013062 385.48071289 5.89672852 C420.07883216 15.17866685 451.49888037 32.559749 480 54 C480.59893066 54.44585449 481.19786133 54.89170898 481.81494141 55.35107422 C501.73232107 70.19069166 520.86658063 87.09163249 537 106 C537.78890625 106.89976562 538.5778125 107.79953125 539.390625 108.7265625 C576.1863668 150.99389229 606.24622711 206.26451111 606.12025452 263.47717285 C606.12069097 264.95250641 606.12156726 266.4278399 606.12284368 267.90317297 C606.12507398 271.94406843 606.12108744 275.98493725 606.11606562 280.02582932 C606.11174025 284.3883743 606.11320903 288.75091783 606.1139679 293.11346436 C606.11449181 300.66750951 606.11135886 308.22154601 606.10573006 315.77558899 C606.09759709 326.69741749 606.09499799 337.61924182 606.09374207 348.54107302 C606.09155437 366.26175939 606.08490194 383.98244114 606.07543945 401.703125 C606.06625803 418.91536435 606.05918076 436.12760245 606.05493164 453.33984375 C606.05466892 454.40111239 606.05440619 455.46238103 606.05413551 456.55580932 C606.05283046 461.8799736 606.05156675 467.20413789 606.05032361 472.52830219 C606.0399598 516.68553889 606.02152622 560.84276706 606 605 C578.61 605 551.22 605 523 605 C523.04640625 612.9509375 523.0928125 620.901875 523.140625 629.09375 C523.16110206 634.17970084 523.18036058 639.26559969 523.1953125 644.3515625 C523.21907424 652.39562575 523.24695162 660.43947918 523.30175781 668.48339844 C523.34573873 674.9803518 523.36924556 681.47710646 523.37950897 687.97419739 C523.38680778 690.43287782 523.40105511 692.89154939 523.42292023 695.35014343 C523.82993411 743.08557738 509.14181413 786.12493727 476 821 C475.52191895 821.5053125 475.04383789 822.010625 474.55126953 822.53125 C463.26541216 834.38335897 451.22893944 843.81008719 437 852 C436.43087891 852.33241699 435.86175781 852.66483398 435.27539062 853.00732422 C415.85390428 864.26467299 393.33362129 871.60245839 371 874 C370.2805571 874.08263596 369.5611142 874.16527191 368.81987 874.25041199 C358.24702006 875.30866239 347.65921288 875.1253783 337.046875 875.09765625 C334.93410272 875.09578798 332.82133 875.09436601 330.70855713 875.09336853 C325.18490372 875.08957557 319.66127717 875.07977328 314.13763428 875.06866455 C307.49026545 875.05656819 300.84288758 875.05203284 294.19551086 875.04621124 C284.13032197 875.03655942 274.06519187 875.01738042 264 875 C264 902.39 264 929.78 264 958 C255.31905029 957.87842529 246.63810059 957.75685059 237.6940918 957.6315918 C209.74134016 957.26103471 181.7890609 957.03662532 153.8342217 956.90128772 C149.47337814 956.88004403 145.11254201 956.85752969 140.75170898 956.83422852 C139.88374759 956.82961213 139.0157862 956.82499574 138.12152294 956.82023946 C124.16835503 956.74301513 110.21835977 956.5634799 96.26678028 956.34437432 C81.89153366 956.12095898 67.51848416 956.01155548 53.1414941 956.0024007 C45.08926588 955.99414947 37.04419452 955.93700614 28.99399376 955.74863243 C-9.99530696 954.86652762 -38.33832481 957.8665963 -69.09058762 984.66712952 C-74.11008648 989.02736802 -79.52536456 992.61894751 -85.12890625 996.19140625 C-86.732828 997.2683165 -88.33424274 998.34898318 -89.93164062 999.43554688 C-106.44961738 1010.59052124 -123.00385728 1021.68896009 -139.59890747 1032.72894287 C-152.34223598 1041.20732179 -165.04635114 1049.74170613 -177.72674561 1058.31390381 C-183.06492251 1061.92034826 -188.40856945 1065.51867958 -193.75283813 1069.11608887 C-197.61414505 1071.71583678 -201.47309137 1074.31881073 -205.32324219 1076.93505859 C-208.44542378 1079.05651028 -211.57595534 1081.16485582 -214.71508789 1083.26113892 C-216.31888326 1084.33734364 -217.91258072 1085.42854974 -219.50585938 1086.52026367 C-220.43978516 1087.14006104 -221.37371094 1087.7598584 -222.3359375 1088.3984375 C-223.52002197 1089.19773682 -223.52002197 1089.19773682 -224.72802734 1090.01318359 C-227.64006523 1091.27800813 -228.95980389 1090.78947045 -232 1090 C-234.11450195 1089.13874817 -234.11450195 1089.13874817 -236.23828125 1088.08911133 C-237.45041794 1087.49549805 -237.45041794 1087.49549805 -238.68704224 1086.88989258 C-239.5534433 1086.45829834 -240.41984436 1086.0267041 -241.3125 1085.58203125 C-242.22522675 1085.13327637 -243.13795349 1084.68452148 -244.07833862 1084.22216797 C-247.0548227 1082.75748437 -250.02733654 1081.28491994 -253 1079.8125 C-255.06493043 1078.79513378 -257.13019952 1077.77845467 -259.19580078 1076.76245117 C-262.28530505 1075.24278433 -265.37463565 1073.72278017 -268.46292114 1072.20063782 C-276.24781732 1068.36403888 -284.0524935 1064.57178461 -291.875 1060.8125 C-303.6208434 1055.15909021 -315.34422283 1049.46028747 -327.0625 1043.75 C-327.93090515 1043.32691559 -328.7993103 1042.90383118 -329.69403076 1042.46792603 C-332.16205801 1041.2653874 -334.62990534 1040.06248059 -337.09765625 1038.859375 C-338.20804512 1038.3182029 -338.20804512 1038.3182029 -339.34086609 1037.76609802 C-342.56818736 1036.19191305 -345.78826085 1034.60586957 -349 1033 C-349 806.95 -349 580.9 -349 348 C-322.93 348 -296.86 348 -270 348 C-270.02320313 341.04808594 -270.04640625 334.09617187 -270.0703125 326.93359375 C-270.08055353 322.48111597 -270.09018299 318.02865308 -270.09765625 313.57617188 C-270.10952738 306.53732214 -270.12343909 299.49852532 -270.15087891 292.4597168 C-270.17290338 286.77326447 -270.18462973 281.08686903 -270.18975449 275.40037727 C-270.19339794 273.25070362 -270.20050905 271.10103243 -270.21146011 268.95138359 C-270.26582016 257.81929617 -270.06180405 246.78101348 -269.12060547 235.68383789 C-269.00561046 234.31678664 -269.00561046 234.31678664 -268.88829231 232.92211819 C-265.37919906 195.6264465 -248.62623866 161.00894938 -223 134 C-221.94918468 132.75768095 -220.9062691 131.50859186 -219.875 130.25 C-216.59491882 126.40658078 -212.90533037 123.19527031 -209 120 C-207.62908203 118.87271484 -207.62908203 118.87271484 -206.23046875 117.72265625 C-168.5373843 87.71042675 -126.35923574 78.78821119 -79.1015625 78.90234375 C-76.81228669 78.90421238 -74.52301048 78.90563418 -72.23373413 78.90663147 C-66.25308091 78.91042164 -60.27245257 78.92022143 -54.29180908 78.93133545 C-47.09206659 78.94343948 -39.89231571 78.94796849 -32.69256592 78.95378876 C-21.79502672 78.96343554 -10.89754195 78.98261647 0 79 C0 52.93 0 26.86 0 0 Z M191 144 C191 170.4 191 196.8 191 224 C180.03845703 223.9685791 180.03845703 223.9685791 168.85546875 223.93652344 C145.42518939 223.87220934 121.99491513 223.82778131 98.56457132 223.79573868 C94.92000045 223.79073636 91.27542985 223.78555902 87.63085938 223.78027344 C86.90534634 223.7792242 86.1798333 223.77817495 85.43233502 223.77709392 C73.71282308 223.75972854 61.9933903 223.72821239 50.27392519 223.69138882 C38.23244072 223.65387135 26.19099748 223.63174142 14.14945698 223.62364602 C7.39272538 223.61866873 0.63615826 223.60678258 -6.12051392 223.57707977 C-12.48985044 223.54977952 -18.85893541 223.54158449 -25.22832489 223.54756927 C-27.55660116 223.54647556 -29.88488649 223.53860947 -32.21311188 223.5231781 C-49.44375104 223.41464777 -64.49256923 224.7390322 -80 233 C-80.82757812 233.44085937 -81.65515625 233.88171875 -82.5078125 234.3359375 C-100.9761854 244.81485755 -114.40682653 260.8417517 -121.3125 280.875 C-121.55516602 281.56932129 -121.79783203 282.26364258 -122.04785156 282.97900391 C-126.9653223 298.2078613 -126.27907401 314.05492545 -126.23046875 329.8515625 C-126.22960966 332.43101996 -126.22953222 335.01047778 -126.23017883 337.5899353 C-126.22990634 343.79155592 -126.21838453 349.99310585 -126.20258409 356.19470441 C-126.19005731 361.20125417 -126.1821921 366.20779272 -126.17724609 371.21435547 C-126.12260686 424.8130969 -125.67475169 478.40543726 -125 532 C-149.75 532 -174.5 532 -200 532 C-200 648.16 -200 764.32 -200 884 C-191.08733723 878.90704984 -182.27431156 873.78457875 -173.5625 868.375 C-171.2828474 866.9656646 -169.00292975 865.55676713 -166.72265625 864.1484375 C-166.15499542 863.79755066 -165.58733459 863.44666382 -165.00247192 863.08514404 C-159.51776132 859.6968139 -154.01089655 856.3455063 -148.5 853 C-139.2266626 847.36697246 -129.98206543 841.68834934 -120.74633789 835.99389648 C-112.16831513 830.70860469 -103.56515997 825.46552726 -94.94335938 820.25195312 C-93.59274414 819.43307617 -93.59274414 819.43307617 -92.21484375 818.59765625 C-91.02556274 817.87848022 -91.02556274 817.87848022 -89.81225586 817.14477539 C-88.05334504 816.12674061 -88.05334504 816.12674061 -87 815 C-85.0640635 814.8911254 -83.12412793 814.85310166 -81.18516541 814.84178162 C-79.92166763 814.8319928 -78.65816986 814.82220398 -77.35638428 814.81211853 C-75.94323768 814.80621357 -74.53009069 814.80040317 -73.11694336 814.79467773 C-71.63897931 814.78510463 -70.16101804 814.77509489 -68.68305969 814.76467896 C-64.65847154 814.73756228 -60.63387158 814.71658947 -56.6092422 814.69667697 C-52.40781277 814.67485897 -48.20642002 814.64744987 -44.00502014 814.62062073 C-36.04356403 814.57063705 -28.08208762 814.52571935 -20.1205917 814.48259836 C-9.36610873 814.42405934 1.38832605 814.35774211 12.142766 814.29184818 C29.0951449 814.18818475 46.04756491 814.09495465 63 814 C63 786.61 63 759.22 63 731 C70.04029541 731.01047363 77.08059082 731.02094727 84.33422852 731.03173828 C106.90509702 731.06389281 129.47596854 731.08610829 152.04685358 731.10213066 C155.55752158 731.10463183 159.06818952 731.1072205 162.57885742 731.10986328 C163.62714714 731.11065021 163.62714714 731.11065021 164.69661444 731.11145304 C175.98674683 731.12013659 187.27685869 731.13589518 198.56697894 731.15430559 C210.16662782 731.17306186 221.76626478 731.18397926 233.36592811 731.18817699 C239.87497496 731.19077771 246.38397536 731.19686374 252.89300728 731.21146011 C259.02837055 731.22510615 265.16366855 731.2292085 271.29904556 731.22621536 C273.54226601 731.2267624 275.7854888 731.23069775 278.02869606 731.23841095 C306.68494648 731.33205284 333.10696909 727.14704506 354.52734375 706.50048828 C374.50547959 686.14478157 379.80652185 661.8999728 379.56762695 634.17895508 C379.56621309 631.85105927 379.56701505 629.52316125 379.56983948 627.19526672 C379.57126181 620.93606055 379.54206497 614.67734296 379.50696969 608.41824937 C379.47550733 601.85467969 379.47275987 595.29109623 379.46684265 588.72746277 C379.45394837 577.73041415 379.42198135 566.73353475 379.37719727 555.73657227 C379.33115949 544.41984936 379.29583763 533.10317485 379.2746582 521.78637695 C379.27334459 521.08643774 379.27203097 520.38649853 379.27067754 519.66534904 C379.2641514 516.15325058 379.25783309 512.64115178 379.25161803 509.12905276 C379.19995494 480.08590038 379.10787278 451.04300455 379 422 C406.39 422 433.78 422 462 422 C462.08753768 397.58106914 462.08753768 397.58106914 462.14648438 373.16210938 C462.1642203 363.19062623 462.18496265 353.21921965 462.22631836 343.24780273 C462.25643547 335.98263287 462.27562531 328.71752569 462.28226548 321.45229512 C462.28614042 317.61355111 462.29509756 313.77498625 462.31719017 309.93630028 C462.42357938 290.7053899 462.25490557 271.80819218 456.5 253.25 C456.25427246 252.44691406 456.00854492 251.64382813 455.75537109 250.81640625 C450.86633248 235.71271747 443.62206163 220.6637464 434 208 C433.35546875 207.14792969 432.7109375 206.29585937 432.046875 205.41796875 C405.69053668 171.64242496 369.80580377 150.20935451 327.10816956 144.47755432 C321.06030293 143.81768864 315.03030006 143.86815313 308.95288086 143.88647461 C307.67384888 143.88632858 306.39481689 143.88618256 305.07702637 143.8860321 C301.59625104 143.88574708 298.1155107 143.8915959 294.63474345 143.89860606 C290.98725614 143.90488892 287.33976789 143.90544728 283.692276 143.90663147 C276.79707922 143.90973031 269.90189844 143.91792407 263.00670868 143.92798096 C253.6808644 143.94128563 244.3550157 143.9466537 235.02916431 143.95248318 C220.35276425 143.96186503 205.67639792 143.98179358 191 144 Z " fill="#00EDA7" transform="translate(1113,424)"/>
<path d="M0 0 C26.4 0 52.8 0 80 0 C80 60.39 80 120.78 80 183 C102.77 183 125.54 183 149 183 C149.33 299.16 149.66 415.32 150 535 C156.93 530.71 163.86 526.42 171 522 C174.72576127 519.7230148 178.45273868 517.44948034 182.1875 515.1875 C191.57863424 509.48550877 200.93984702 503.73613554 210.29199219 497.97045898 C218.33129915 493.0175218 226.39031559 488.09795425 234.47460938 483.21875 C235.31701172 482.70828125 236.15941406 482.1978125 237.02734375 481.671875 C237.90681671 481.16108398 238.78628967 480.65029297 239.69241333 480.12402344 C242.1965026 478.51597962 244.26855128 476.9653382 246.51303101 475.05761719 C261.06842521 463.42382228 276.76267315 464.40744034 294.41777778 464.78327274 C298.598816 464.85922798 302.78000242 464.86540983 306.96162415 464.87957764 C314.84910414 464.91660557 322.73454452 465.01469814 330.62113363 465.13577151 C339.61264859 465.27075667 348.60427048 465.33609124 357.59654939 465.39611673 C376.06575123 465.52093541 394.53216366 465.74064363 413 466 C413 485.8 413 505.6 413 526 C479 526 545 526 613 526 C613 553.72 613 581.44 613 610 C604.31905029 609.87842529 595.63810059 609.75685059 586.6940918 609.6315918 C558.74134016 609.26103471 530.7890609 609.03662532 502.8342217 608.90128772 C498.47337814 608.88004403 494.11254201 608.85752969 489.75170898 608.83422852 C488.88374759 608.82961213 488.0157862 608.82499574 487.12152294 608.82023946 C473.16835503 608.74301513 459.21835977 608.5634799 445.26678028 608.34437432 C430.89153366 608.12095898 416.51848416 608.01155548 402.1414941 608.0024007 C394.08926588 607.99414947 386.04419452 607.93700614 377.99399376 607.74863243 C339.00469304 606.86652762 310.66167519 609.8665963 279.90941238 636.66712952 C274.88991352 641.02736802 269.47463544 644.61894751 263.87109375 648.19140625 C262.267172 649.2683165 260.66575726 650.34898318 259.06835938 651.43554688 C242.55038262 662.59052124 225.99614272 673.68896009 209.40109253 684.72894287 C196.65776402 693.20732179 183.95364886 701.74170613 171.27325439 710.31390381 C165.93507749 713.92034826 160.59143055 717.51867958 155.24716187 721.11608887 C151.38585495 723.71583678 147.52690863 726.31881073 143.67675781 728.93505859 C140.55457622 731.05651028 137.42404466 733.16485582 134.28491211 735.26113892 C132.68111674 736.33734364 131.08741928 737.42854974 129.49414062 738.52026367 C128.09325195 739.44995972 128.09325195 739.44995972 126.6640625 740.3984375 C125.47997803 741.19773682 125.47997803 741.19773682 124.27197266 742.01318359 C121.35993477 743.27800813 120.04019611 742.78947045 117 742 C114.88549805 741.13874817 114.88549805 741.13874817 112.76171875 740.08911133 C111.54958206 739.49549805 111.54958206 739.49549805 110.31295776 738.88989258 C109.01335617 738.24250122 109.01335617 738.24250122 107.6875 737.58203125 C106.31840988 736.90889893 106.31840988 736.90889893 104.92166138 736.22216797 C101.9451773 734.75748437 98.97266346 733.28491994 96 731.8125 C93.93506957 730.79513378 91.86980048 729.77845467 89.80419922 728.76245117 C86.71469495 727.24278433 83.62536435 725.72278017 80.53707886 724.20063782 C72.75218268 720.36403888 64.9475065 716.57178461 57.125 712.8125 C45.3791566 707.15909021 33.65577717 701.46028747 21.9375 695.75 C21.06909485 695.32691559 20.2006897 694.90383118 19.30596924 694.46792603 C16.83794199 693.2653874 14.37009466 692.06248059 11.90234375 690.859375 C10.79195488 690.3182029 10.79195488 690.3182029 9.65913391 689.76609802 C6.43181264 688.19191305 3.21173915 686.60586957 0 685 C0 458.95 0 232.9 0 0 Z " fill="#00EDA7" transform="translate(764,772)"/>
<path d="M0 0 C1.76924154 -0.00102662 3.53848291 -0.00237211 5.307724 -0.0039978 C10.24786903 -0.00675122 15.18798345 -0.00210727 20.12812424 0.00424194 C23.29791101 0.00783137 26.46769313 0.00944032 29.63748169 0.01049805 C111.68573952 0.04388075 193.73466973 0.65462285 275.78125 1.1328125 C275.96189558 10.13256391 276.12680071 19.13257641 276.28125 28.1328125 C276.29906588 29.1703064 276.29906588 29.1703064 276.31724167 30.22875977 C276.7639502 56.53047013 276.86889836 82.82762568 276.84375 109.1328125 C276.84289398 110.03465271 276.84203796 110.93649292 276.84115601 111.86566162 C276.82984139 122.95473285 276.80987886 134.04377261 276.78125 145.1328125 C275.53848801 145.13427906 274.29572601 145.13574562 273.01530457 145.13725662 C243.45874131 145.17302364 213.90229054 145.22935828 184.34582132 145.31073345 C180.70125107 145.3207499 177.05668038 145.3305942 173.41210938 145.34033203 C172.32383982 145.34324409 172.32383982 145.34324409 171.21358502 145.34621498 C159.49411961 145.37716494 147.77467373 145.39419601 136.05517519 145.40600672 C124.01363035 145.41845471 111.97218743 145.44603788 99.93070698 145.48742557 C93.17402032 145.51022124 86.41746493 145.52622096 79.66073608 145.52469635 C73.29133132 145.52394748 66.92224693 145.54198994 60.55292511 145.57398033 C58.22467766 145.58244655 55.89639414 145.58425176 53.56813812 145.57861519 C36.36165338 145.54253207 21.26503993 146.88443842 5.78125 155.1328125 C4.95367188 155.57367187 4.12609375 156.01453125 3.2734375 156.46875 C-15.92068047 167.35945644 -28.61280759 183.80173589 -35.53125 204.6328125 C-39.44955239 218.94199142 -39.49790552 232.93536393 -39.44580078 247.65185547 C-39.44523571 249.9001973 -39.44555511 252.14853949 -39.44668579 254.3968811 C-39.44725654 260.46200717 -39.43554737 266.52705315 -39.42153788 272.5921607 C-39.40898403 278.94490999 -39.40785636 285.29766137 -39.40548706 291.65042114 C-39.39998923 302.30065447 -39.38752073 312.9508564 -39.36962891 323.60107422 C-39.35123112 334.56396338 -39.33709377 345.52684459 -39.32861328 356.48974609 C-39.32782511 357.50578139 -39.32782511 357.50578139 -39.32702102 358.54234265 C-39.32441068 361.94092196 -39.32188332 365.33950133 -39.31939721 368.73808074 C-39.29871142 396.86967825 -39.2633769 425.00124355 -39.21875 453.1328125 C-50.28123908 453.16405106 -61.34372362 453.18400903 -72.40625 453.1953125 C-73.65384283 453.19659653 -73.65384283 453.19659653 -74.92663956 453.19790649 C-101.09043953 453.22163514 -127.24566646 453.04417739 -153.40625 452.6328125 C-154.54758204 452.61487577 -154.54758204 452.61487577 -155.71197128 452.59657669 C-164.88106755 452.45161816 -174.04998337 452.29740402 -183.21875 452.1328125 C-184.31767498 270.68483679 -184.31767498 270.68483679 -184.39599609 215.23986816 C-184.40177964 211.21502098 -184.4121113 207.19022978 -184.42675781 203.16540527 C-184.61996547 147.48956221 -177.07897899 97.14377327 -137.21875 55.1328125 C-136.16793468 53.89049345 -135.1250191 52.64140436 -134.09375 51.3828125 C-130.81366882 47.53939328 -127.12408037 44.32808281 -123.21875 41.1328125 C-121.84783203 40.00552734 -121.84783203 40.00552734 -120.44921875 38.85546875 C-85.11721504 10.7231941 -44.67783123 -0.06109701 0 0 Z " fill="#4FFCC3" transform="translate(1027.21875,502.8671875)"/>
<path d="M0 0 C47.52 0 95.04 0 144 0 C144.1613254 73.5643807 144.1613254 73.5643807 144.1953125 104.40234375 C144.20314261 111.45947303 144.21122414 118.51660196 144.21972656 125.57373047 C144.22078156 126.45808419 144.22183655 127.34243791 144.22292352 128.25359023 C144.24026544 142.4839412 144.2717698 156.71422674 144.30861118 170.94453907 C144.34617203 185.57605144 144.36826765 200.20752984 144.37635398 214.83908844 C144.38181056 223.84925651 144.39896994 232.85923966 144.43166587 241.86935073 C144.45300133 248.06905214 144.45915764 254.26865959 144.45400551 260.46839494 C144.45147288 264.0319134 144.45502651 267.5951115 144.4768219 271.15857124 C144.75961898 319.8512245 130.92551899 363.30024626 97 399 C96.52191895 399.5053125 96.04383789 400.010625 95.55126953 400.53125 C84.26541216 412.38335897 72.22893944 421.81008719 58 430 C57.43087891 430.33241699 56.86175781 430.66483398 56.27539062 431.00732422 C36.85390428 442.26467299 14.33362129 449.60245839 -8 452 C-9.14397704 452.12364803 -9.14397704 452.12364803 -10.31106472 452.24979401 C-19.62376915 453.14588493 -28.88411031 453.13580476 -38.22875977 453.11523438 C-40.04899275 453.11482505 -41.86922585 453.11481115 -43.68945885 453.11515808 C-48.63173977 453.11463109 -53.57399031 453.10743564 -58.51626277 453.09871864 C-61.6546721 453.09370887 -64.79307765 453.09059012 -67.93148994 453.08811951 C-115.5945095 453.05053803 -163.25673249 452.81630788 -210.91896307 452.55461884 C-222.32338698 452.49210184 -233.72782621 452.43260842 -245.13226688 452.37324238 C-268.42152833 452.25194835 -291.71077042 452.12725773 -315 452 C-315.77474097 416.91338891 -316.0946489 381.84454692 -316.0625 346.75 C-316.06164398 345.80886227 -316.06078796 344.86772453 -316.05990601 343.89806747 C-316.04853726 332.26535858 -316.0284931 320.63267939 -316 309 C-314.20404971 308.99503478 -314.20404971 308.99503478 -312.37181759 308.98996925 C-283.89888889 308.91081409 -255.42600366 308.82154255 -226.95314642 308.71994839 C-223.44247874 308.70743072 -219.93181075 308.69499776 -216.42114258 308.68261719 C-215.72228276 308.68015119 -215.02342295 308.6776852 -214.30338556 308.67514448 C-203.01327692 308.63550786 -191.72315838 308.60272045 -180.43302106 308.57250018 C-168.83334137 308.54129755 -157.23370514 308.50250634 -145.63407189 308.45720994 C-139.12504758 308.43202968 -132.61605245 308.41022357 -126.10699272 308.39665604 C-119.97159457 308.38375856 -113.83629692 308.36162225 -107.70095444 308.33261681 C-105.45774871 308.32360082 -103.21452682 308.3178649 -100.97130394 308.31578636 C-72.11423123 308.28427892 -45.39221565 304.18160312 -24 283 C-5.17930532 262.54478733 -0.22550653 239.30665846 -0.34057617 212.17895508 C-0.33210327 209.85105029 -0.32145023 207.5231526 -0.30880737 205.19526672 C-0.28088633 198.93616025 -0.28309254 192.67739911 -0.29110122 186.41824937 C-0.29424528 179.85460346 -0.26913656 173.29106392 -0.24714661 166.72746277 C-0.21323583 155.73048769 -0.19809097 144.73359691 -0.19555664 133.73657227 C-0.1929009 122.41979951 -0.17964535 111.10311874 -0.15258789 99.78637695 C-0.15007162 98.72581881 -0.15007162 98.72581881 -0.14750451 97.64383525 C-0.13281712 91.49166266 -0.11733781 85.33949211 -0.10178089 79.18732166 C-0.03605678 52.79152117 -0.02225799 26.39595585 0 0 Z " fill="#4EFBC2" transform="translate(1492,846)"/>
<path d="M0 0 C17.49 0 34.98 0 53 0 C53 92.07 53 184.14 53 279 C35.51 279 18.02 279 0 279 C-0.33 268.44 -0.66 257.88 -1 247 C-3.64 250.63 -6.28 254.26 -9 258 C-21.45927781 272.17779889 -38.95581497 280.82248367 -57.79760742 282.20532227 C-60.6185419 282.30216882 -63.42748569 282.32908465 -66.25 282.3125 C-67.25216553 282.30758545 -68.25433105 282.3026709 -69.28686523 282.29760742 C-91.40852839 281.95087289 -111.18949706 274.26433382 -128 260 C-128.61488281 259.51917969 -129.22976563 259.03835938 -129.86328125 258.54296875 C-149.7861351 242.65048534 -160.57530773 215.91636385 -163.68359375 191.24609375 C-166.66168597 157.16348279 -160.5565287 125.80929764 -138.5390625 99.00390625 C-122.73726756 80.50805412 -100.3369442 69.49994799 -76.17700195 67.16552734 C-55.29135982 65.57749714 -33.26300057 68.30408458 -16.80859375 82.39453125 C-16.21175781 82.92433594 -15.61492187 83.45414063 -15 84 C-13.989375 84.763125 -12.97875 85.52625 -11.9375 86.3125 C-7.81779969 90.08158752 -4.48812348 94.63984565 -1 99 C-0.67 66.33 -0.34 33.66 0 0 Z M-95.625 132.1796875 C-108.92509249 147.97354733 -109.9181536 166.23589357 -109 186 C-107.61686732 201.03405083 -99.78509318 213.10882858 -88.7734375 223 C-75.89799207 233.55513547 -62.25599195 236.40746077 -46 235 C-36.83160152 233.37114623 -29.46100581 229.45780971 -22 224 C-21.34257813 223.52691406 -20.68515625 223.05382813 -20.0078125 222.56640625 C-9.70358502 214.48331225 -2.65099675 200.90779278 -1 188 C1.00610049 169.17351847 -0.31954485 150.90467785 -12.140625 135.26953125 C-21.35435997 124.02335474 -33.31445655 115.91061917 -48 114 C-66.82526255 112.50253593 -82.63616228 118.32241005 -95.625 132.1796875 Z " fill="#BCBEC0" transform="translate(1326,1777)"/>
<path d="M0 0 C9.8631965 9.31896468 9.8631965 9.31896468 13.29248047 14.46289062 C13.62248047 5.22289062 13.95248047 -4.01710938 14.29248047 -13.53710938 C32.11248047 -13.53710938 49.93248047 -13.53710938 68.29248047 -13.53710938 C68.29248047 55.43289063 68.29248047 124.40289063 68.29248047 195.46289062 C50.47248047 195.46289062 32.65248047 195.46289062 14.29248047 195.46289062 C13.96248047 185.56289062 13.63248047 175.66289063 13.29248047 165.46289062 C11.70435547 167.42226562 10.11623047 169.38164063 8.47998047 171.40039062 C-2.74138788 184.79271881 -16.41117771 193.94957119 -33.70751953 197.46289062 C-34.57634766 197.6459375 -35.44517578 197.82898437 -36.34033203 198.01757812 C-62.17277613 201.43393384 -88.09280867 195.98604769 -108.95361328 180.02929688 C-131.37632902 162.18230845 -145.26204913 136.32227135 -148.52661133 107.82080078 C-150.9999796 75.58356633 -146.689492 43.06664922 -125.33251953 17.58789062 C-108.6516731 -1.49585774 -86.89224921 -14.211022 -61.32080078 -16.40820312 C-39.70440051 -17.47448296 -16.86946624 -15.1858964 0 0 Z M-81.78173828 49.84570312 C-93.72799119 65.96407472 -96.27398987 84.98203914 -93.42626953 104.41601562 C-90.73803664 120.53031057 -82.32423567 133.44864873 -69.30126953 143.27929688 C-56.47431069 151.58766795 -41.8983187 153.48561261 -27.05517578 150.80273438 C-13.54926338 147.09302478 -0.80641249 138.21502928 6.43310547 126.06445312 C12.39061322 114.72516317 14.81071264 103.77421289 14.66748047 90.96289062 C14.67908203 89.92519531 14.69068359 88.8875 14.70263672 87.81835938 C14.6441215 72.15578601 9.68127835 58.17836505 -1.21923828 46.78320312 C-13.60285163 35.23553228 -26.28463284 29.92243994 -43.14892578 30.21289062 C-58.38024129 31.28292816 -71.76684815 38.34083876 -81.78173828 49.84570312 Z " fill="#BCBEC0" transform="translate(694.70751953125,1860.537109375)"/>
<path d="M0 0 C141.69488189 0 141.69488189 0 168 23 C168.61488281 23.53109375 169.22976563 24.0621875 169.86328125 24.609375 C183.38819334 37.17044278 190.94452747 54.62822335 192.28515625 72.8828125 C192.80182315 95.84079396 185.39793215 116.8763742 170.44140625 134.46484375 C153.63777551 151.91373391 127.4763469 158.41387385 103.97964478 159.0864563 C100.76329761 159.1145989 97.5484598 159.11277922 94.33203125 159.09765625 C93.30122437 159.09664917 92.27041748 159.09564209 91.20837402 159.09460449 C87.4097378 159.08942829 83.61111761 159.0754677 79.8125 159.0625 C71.294375 159.041875 62.77625 159.02125 54 159 C54 193.32 54 227.64 54 263 C36.18 263 18.36 263 0 263 C0 176.21 0 89.42 0 0 Z M54 42 C54 66.75 54 91.5 54 117 C62.311875 117.0825 70.62375 117.165 79.1875 117.25 C83.08212036 117.30462402 83.08212036 117.30462402 87.05541992 117.36035156 C107.46359464 117.72750862 107.46359464 117.72750862 125.2890625 108.69921875 C133.65201917 100.39354261 137.10400011 91.55332468 137.25 79.8125 C137.23056067 68.39050703 134.13002761 59.74603528 126.40625 51.24609375 C119.78407356 45.01437583 110.68773604 41.8650292 101.68066406 41.88647461 C100.60510254 41.88659546 99.52954102 41.88671631 98.42138672 41.88684082 C97.29748535 41.89195679 96.17358398 41.89707275 95.015625 41.90234375 C93.45884033 41.90385437 93.45884033 41.90385437 91.87060547 41.90539551 C87.99705906 41.91062392 84.12352841 41.92458519 80.25 41.9375 C67.25625 41.9684375 67.25625 41.9684375 54 42 Z " fill="#BCBEC0" transform="translate(358,1793)"/>
<path d="M0 0 C6.67737307 5.72802243 11.90469991 12.0829726 16.875 19.3125 C17.43574219 20.09625 17.99648437 20.88 18.57421875 21.6875 C34.45291779 45.69309225 36.77332279 79.71502628 31.25 107.3125 C25.13456283 134.59525864 8.36851098 158.11435454 -15.18896484 173.14697266 C-25.83463606 179.55585467 -36.98406296 183.74084109 -49.125 186.3125 C-50.56552734 186.64894531 -50.56552734 186.64894531 -52.03515625 186.9921875 C-80.639286 192.61291824 -112.76823371 187.51982193 -137.125 171.3125 C-140.59297421 168.78638508 -143.87231571 166.10786488 -147.125 163.3125 C-148.11693359 162.53712891 -148.11693359 162.53712891 -149.12890625 161.74609375 C-168.6190809 146.03583176 -179.13543078 120.29347125 -181.89794922 95.94238281 C-184.62729525 64.32892539 -178.77670749 34.09454899 -158.125 9.3125 C-117.81237094 -36.43844947 -45.85370593 -38.10039569 0 0 Z M-116.125 39.3125 C-128.07525705 55.13505064 -129.0809286 76.80319048 -126.82470703 95.84716797 C-124.27822265 110.74653457 -117.51698325 123.96531791 -105.5234375 133.34765625 C-92.08721233 142.46647765 -77.40427891 144.58544429 -61.55859375 141.65234375 C-47.54558964 137.43199962 -35.49669511 127.73470034 -28.40234375 114.9609375 C-19.51649885 96.53707559 -18.92259132 74.50172651 -24.8125 55.0625 C-29.92693402 41.05421566 -39.71032071 29.86189601 -53.125 23.3125 C-76.48030264 13.84413407 -99.89350265 20.41319599 -116.125 39.3125 Z " fill="#BCBEC0" transform="translate(1574.125,1870.6875)"/>
<path d="M0 0 C16.88430938 14.55628413 25.48386647 33.89796208 28.25 55.75 C28.50782787 60.46015025 28.50403795 65.1558359 28.47705078 69.87207031 C28.47648509 71.24328096 28.4768063 72.61449221 28.47793579 73.98570251 C28.47850415 77.66881331 28.46683461 81.35179095 28.45278788 85.0348711 C28.44019336 88.89854551 28.4391032 92.76222376 28.43673706 96.62591553 C28.43054771 103.92477585 28.41417174 111.22357548 28.39403808 118.5224092 C28.37159936 126.83932841 28.3606657 135.15625069 28.35064721 143.47319269 C28.32980293 160.56550281 28.29315895 177.65772945 28.25 194.75 C10.76 194.75 -6.73 194.75 -24.75 194.75 C-24.78738281 186.11714844 -24.82476563 177.48429687 -24.86328125 168.58984375 C-24.89743997 162.39902673 -24.93343847 156.20824163 -24.97207737 150.01745319 C-25.02178951 142.01352446 -25.06727139 134.00964806 -25.09643555 126.00561523 C-25.11955357 119.66476887 -25.15310261 113.3240739 -25.19870156 106.98334795 C-25.22245004 103.63212094 -25.23974057 100.28117741 -25.24761391 96.92985344 C-24.86737704 67.02425821 -24.86737704 67.02425821 -38.87109375 41.5 C-48.57310371 32.46361651 -60.98826012 30.31269956 -73.83203125 30.5390625 C-85.26744914 31.15472807 -96.64871354 34.97243672 -104.625 43.5 C-117.24698513 59.50395244 -116.22001804 78.651578 -116.25611091 98.0067935 C-116.26559327 101.41675765 -116.29180318 104.82659588 -116.31611633 108.23648071 C-116.35951719 114.67107031 -116.38822528 121.10563511 -116.41143972 127.54032576 C-116.44131027 135.5972768 -116.49117654 143.65408949 -116.54101562 151.7109375 C-116.62967394 166.05724912 -116.68847252 180.40348948 -116.75 194.75 C-134.57 194.75 -152.39 194.75 -170.75 194.75 C-170.75 125.78 -170.75 56.81 -170.75 -14.25 C-152.93 -14.25 -135.11 -14.25 -116.75 -14.25 C-116.42 -5.01 -116.09 4.23 -115.75 13.75 C-113.77 11.11 -111.79 8.47 -109.75 5.75 C-98.27052046 -7.99058915 -81.94349268 -14.78009782 -64.453125 -16.9375 C-40.94716506 -18.92112531 -18.94032398 -14.76658453 0 0 Z " fill="#BCBEC0" transform="translate(1122.75,1861.25)"/>
<path d="M0 0 C0.90878906 0.46148438 1.81757812 0.92296875 2.75390625 1.3984375 C23.67710608 13.01870578 37.90699151 32.70320138 44.875 55.3125 C49.28996251 70.95479817 52.21996106 92.34011681 47 108 C-7.12 108 -61.24 108 -117 108 C-112.75895263 129.20523687 -109.06750184 147.20634585 -91.5 160.5 C-74.81814165 171.61344 -56.37240717 174.91093956 -36.56640625 171.30859375 C-24.85871172 168.4445825 -14.04905632 163.14443522 -6 154 C-5.31938574 152.78564203 -4.67154159 151.55253368 -4.05151367 150.30615234 C1.18114794 140.10031608 1.18114794 140.10031608 6.04312134 138.20248413 C11.72019928 137.12868974 17.40249679 137.62905964 23.125 138.0625 C24.86168951 138.13786027 26.59869477 138.20628098 28.3359375 138.26757812 C32.5651752 138.43180261 36.77906985 138.68968429 41 139 C38.26492772 157.14949698 23.91617892 172.91274129 10 184 C-14.61911317 201.51978969 -45.11888088 205.53405463 -74.609375 201.3515625 C-98.75017793 196.90303653 -120.44437118 182.34380445 -134.68359375 162.5078125 C-153.1087858 135.42685077 -156.42880688 100.72369756 -151.03515625 69.07421875 C-147.63565552 51.3407755 -140.22485295 34.41752153 -128 21 C-127.11570312 20.02289062 -126.23140625 19.04578125 -125.3203125 18.0390625 C-94.08616647 -15.34061896 -39.75403034 -20.30183327 0 0 Z M-100.75 38.875 C-111.0482938 51.37316407 -116 65.87310104 -116 82 C-73.76 82 -31.52 82 12 82 C10.40556756 61.27237831 5.25386364 46.25461321 -10 32 C-37.4491232 10.55047087 -77.09230061 13.13750286 -100.75 38.875 Z " fill="#BCBEC0" transform="translate(1967,1857)"/>
<path d="M0 0 C0.91265625 0.28875 1.8253125 0.5775 2.765625 0.875 C22.12206167 7.69236134 35.78596768 23.29724799 44.4609375 41.30078125 C49.98568647 53.95347322 51.15198693 66.91918255 51.11352539 80.55444336 C51.11324299 81.92491656 51.11340229 83.29538992 51.1139679 84.66586304 C51.1142538 88.36988923 51.10839052 92.07388278 51.10139394 95.77790141 C51.09512595 99.65495686 51.09455388 103.53201314 51.09336853 107.40907288 C51.09026536 114.74349377 51.08206566 122.07789969 51.07201904 129.412314 C51.06082638 137.76539876 51.05533952 146.11848426 51.05032361 154.47157466 C51.03988218 171.64772658 51.02154933 188.82385788 51 206 C39.78 206 28.56 206 17 206 C16.98018066 202.38804687 16.96036133 198.77609375 16.93994141 195.0546875 C16.87280167 183.0725694 16.79526204 171.09053931 16.71247292 159.10852051 C16.6625667 151.84938618 16.61612335 144.59026192 16.578125 137.33105469 C16.54495741 130.99645648 16.50499422 124.66194185 16.45720994 118.32743645 C16.43218798 114.98013967 16.41135324 111.63295083 16.39665604 108.2855835 C16.76807675 71.3097067 16.76807675 71.3097067 -1 40 C-15.53492494 29.2639759 -31.73578522 25.11276177 -49.61865234 27.72167969 C-62.56723057 29.85481814 -75.01130218 35.17660295 -83 46 C-96.62568969 65.50192875 -95.45811341 88.93711816 -95.51171875 111.76171875 C-95.5269946 114.49227461 -95.54661334 117.22279486 -95.56611633 119.95332336 C-95.60938101 126.35233058 -95.63817135 132.75131317 -95.66143972 139.15042096 C-95.68870932 146.44946579 -95.73260496 153.74838312 -95.77772844 161.04733598 C-95.86999961 176.03150124 -95.93974708 191.01566534 -96 206 C-107.55 206 -119.1 206 -131 206 C-131 137.69 -131 69.38 -131 -1 C-119.45 -1 -107.9 -1 -96 -1 C-95.67 8.9 -95.34 18.8 -95 29 C-93.02 26.36 -91.04 23.72 -89 21 C-78.40012558 7.28113598 -62.80897516 -0.48605837 -45.953125 -3.5546875 C-30.47675387 -5.29807318 -14.79229561 -5.09591045 0 0 Z " fill="#BCBEC0" transform="translate(1751,1850)"/>
<path d="M0 0 C17.82 0 35.64 0 54 0 C54 92.07 54 184.14 54 279 C36.18 279 18.36 279 0 279 C0 186.93 0 94.86 0 0 Z " fill="#BCBEC0" transform="translate(790,1777)"/>
<path d="M0 0 C11.88 0 23.76 0 36 0 C36 16.83 36 33.66 36 51 C53.49 51 70.98 51 89 51 C89 60.57 89 70.14 89 80 C71.51 80 54.02 80 36 80 C36.04034902 97.16850728 36.09719296 114.33669357 36.18390274 131.50501823 C36.22364259 139.47730707 36.25606065 147.44949792 36.27099609 155.421875 C36.28403893 162.37393993 36.31107033 169.3257888 36.35461307 176.27773201 C36.37716912 179.95576544 36.39291423 183.63353297 36.39188385 187.31164169 C36.39099401 191.42665158 36.42134667 195.54088195 36.45410156 199.65576172 C36.4490712 200.86345718 36.44404083 202.07115265 36.43885803 203.31544495 C36.52620076 210.4271915 37.2337316 216.80904749 41 223 C46.66095817 227.96173691 53.32393079 228.16467403 60.484375 228.31640625 C61.70776581 228.3475779 61.70776581 228.3475779 62.95587158 228.37937927 C65.55383105 228.44461297 68.15188913 228.50363768 70.75 228.5625 C72.514333 228.60571014 74.27865613 228.64932522 76.04296875 228.69335938 C80.36187968 228.80102743 84.68086854 228.9002951 89 229 C89 238.57 89 248.14 89 258 C82.7410929 258.0926483 76.48463666 258.17203492 70.22558594 258.21972656 C68.10375841 258.23964078 65.98198427 258.26678222 63.86035156 258.30175781 C47.8173208 258.55929466 31.72001423 258.55078577 18 249 C16.96875 248.29875 15.9375 247.5975 14.875 246.875 C4.74733511 237.8163664 0.99537576 224.0728749 0 211 C-0.13363196 206.6504028 -0.12664334 202.30423612 -0.11352539 197.95288086 C-0.11367142 196.67384888 -0.11381744 195.39481689 -0.1139679 194.07702637 C-0.11425292 190.59625104 -0.1084041 187.1155107 -0.10139394 183.63474345 C-0.09511108 179.98725614 -0.09455272 176.33976789 -0.09336853 172.692276 C-0.09026969 165.79707922 -0.08207593 158.90189844 -0.07201904 152.00670868 C-0.06081281 144.15175442 -0.05533612 136.29679937 -0.05032361 128.4418391 C-0.03989201 112.29454858 -0.02156465 96.14728007 0 80 C-8.58 80 -17.16 80 -26 80 C-26 70.43 -26 60.86 -26 51 C-17.42 51 -8.84 51 0 51 C0 34.17 0 17.34 0 0 Z " fill="#BCBEC0" transform="translate(2036,1798)"/>
<path d="M0 0 C17.82 0 35.64 0 54 0 C54 68.97 54 137.94 54 209 C36.18 209 18.36 209 0 209 C0 140.03 0 71.06 0 0 Z " fill="#BCBEC0" transform="translate(871,1847)"/>
<path d="M0 0 C7.5743869 5.92778105 11.8437501 11.47916699 14.625 20.75 C14.7075 21.575 14.79 22.4 14.875 23.25 C14.93816406 23.8584375 15.00132812 24.466875 15.06640625 25.09375 C15.60164097 34.62438114 12.8239155 43.5536663 6.625 50.8125 C2.7399206 54.72932024 -0.88765199 57.49406743 -6.125 59.25 C-7.15367187 59.59998047 -7.15367187 59.59998047 -8.203125 59.95703125 C-18.19730435 62.74317837 -27.44250196 60.97887147 -36.42578125 56.046875 C-40.52571773 53.31753957 -43.39608775 50.33196623 -46.125 46.25 C-46.55683594 45.62996094 -46.98867188 45.00992187 -47.43359375 44.37109375 C-51.92941525 36.42173462 -51.45687069 25.06609804 -49.46484375 16.3671875 C-46.04214642 7.86230323 -39.25589839 1.2666638 -31.125 -2.75 C-20.68156649 -6.96754046 -9.61066225 -5.38197086 0 0 Z " fill="#BCBEC0" transform="translate(916.125,1766.75)"/>
</svg>
