<?xml version="1.0" standalone="no"?>
<!DOCTYPE svg PUBLIC "-//W3C//DTD SVG 20010904//EN"
 "http://www.w3.org/TR/2001/REC-SVG-20010904/DTD/svg10.dtd">
<svg version="1.0" xmlns="http://www.w3.org/2000/svg"
 width="512.000000pt" height="512.000000pt" viewBox="0 0 512.000000 512.000000"
 preserveAspectRatio="xMidYMid meet">

<g transform="translate(0.000000,512.000000) scale(0.100000,-0.100000)"
fill="#000000" stroke="none">
<path d="M878 4933 c-13 -3 -606 -681 -771 -881 l-27 -34 0 -1893 c0 -1849 0
-1893 19 -1916 l19 -24 2442 0 2442 0 19 24 c19 23 19 67 19 1916 l0 1893 -27
34 c-201 243 -758 877 -776 882 -25 7 -3333 6 -3359 -1z m3272 -1743 l0 -1610
-1590 0 -1590 0 0 1610 0 1610 1590 0 1590 0 0 -1610z m-3320 -132 l0 -1613
-303 -472 -302 -472 -3 1734 -2 1735 302 350 c166 192 303 350 305 350 2 0 3
-726 3 -1612z m3784 1245 l286 -333 -2 -1734 -3 -1735 -302 472 -303 472 0
1615 c0 1577 0 1614 19 1595 10 -11 147 -170 305 -352z m-3197 -2925 c-20 -35
-82 -144 -140 -243 l-104 -180 -247 -3 -247 -2 34 52 c18 29 89 140 156 246
l123 192 230 0 230 0 -35 -62z m588 35 c-3 -16 -32 -125 -64 -243 l-58 -215
-271 -3 c-150 -1 -272 1 -272 4 0 4 62 114 138 245 l137 239 198 0 199 0 -7
-27z m505 -218 l0 -245 -240 0 c-132 0 -240 2 -240 4 0 5 119 455 125 474 3 9
48 12 180 12 l175 0 0 -245z m514 193 c8 -29 36 -132 61 -228 25 -96 49 -183
51 -193 5 -16 -9 -17 -238 -15 l-243 3 -3 230 c-1 126 0 235 2 242 4 10 48 13
180 13 l175 0 15 -52z m691 -185 c55 -130 102 -240 103 -245 2 -4 -117 -7
-264 -6 l-269 3 -57 215 c-32 118 -60 227 -64 243 l-6 27 229 0 229 0 99 -237z
m536 45 c67 -106 138 -217 156 -245 l34 -53 -234 0 -233 0 -100 236 c-54 130
-100 240 -102 245 -2 5 77 9 176 9 l180 0 123 -192z m-3303 -683 l-141 -245
-258 0 c-185 0 -259 3 -259 11 0 10 51 91 247 397 l53 82 250 0 249 0 -141
-245z m892 233 c-1 -7 -29 -116 -63 -243 l-62 -230 -368 -3 c-241 -1 -367 1
-367 8 0 5 61 116 136 245 l136 235 294 0 c229 0 294 -3 294 -12z m670 -233
l0 -245 -319 0 c-176 0 -322 3 -324 8 -3 6 38 168 112 440 l12 42 259 0 260 0
0 -245z m675 223 c3 -13 32 -120 64 -238 32 -118 55 -218 51 -223 -3 -4 -150
-6 -326 -5 l-319 3 -3 243 -2 242 265 0 265 0 5 -22z m796 -213 c54 -126 98
-236 98 -242 1 -10 -67 -13 -308 -13 -171 0 -312 3 -315 8 -6 10 -126 458
-126 471 0 8 83 11 277 9 l276 -3 98 -230z m700 0 c82 -126 148 -236 149 -243
0 -10 -62 -12 -296 -10 l-296 3 -99 235 c-54 129 -99 238 -99 242 0 5 111 7
247 6 l246 -3 148 -230z"/>
<path d="M2752 2693 c-7 -3 -27 -28 -46 -56 -42 -66 -85 -109 -152 -152 -90
-58 -87 -111 9 -154 69 -31 120 -77 137 -125 7 -17 16 -41 21 -53 9 -25 47
-38 83 -29 17 4 35 25 57 67 36 66 67 96 146 141 53 30 69 55 61 94 -2 10 -38
44 -80 76 -42 32 -89 76 -105 99 -58 87 -89 109 -131 92z m74 -314 l-40 -36
-40 39 -40 38 38 39 38 38 42 -41 43 -41 -41 -36z"/>
<path d="M1878 2478 c-8 -7 -28 -35 -43 -63 -42 -73 -108 -140 -192 -191 -118
-74 -113 -118 20 -183 101 -48 151 -100 182 -187 39 -111 102 -111 159 1 37
74 113 150 186 189 72 38 90 54 90 82 0 39 -11 54 -64 88 -79 51 -160 130
-211 206 -41 63 -49 70 -78 70 -18 0 -40 -6 -49 -12z m170 -356 c-13 -8 -44
-37 -70 -64 l-48 -48 -41 45 c-23 25 -56 54 -74 65 l-32 20 70 72 71 73 74
-73 74 -74 -24 -16z"/>
</g>
</svg>
